# xmcd CD database file
#
# Track frame offsets:
#	150
#	14466
#	32375
#	51604
#	78873
#	93318
#	130988
#	144758
#	162143
#
# Disc length: 2424 seconds
#
# Revision: 0
# Processed by: cddbd v1.5.1PL0 Copyright (c) Steve Scherf et al.
# Submitted via: CDex 1.51
#
DISCID=67097609
DTITLE=Oregon - Moon and Mond
DYEAR=1979
DGENRE=Jazz
TTITLE0=PERSON-TO-PERSON
TTITLE1=I REMEMBER ME
TTITLE2=RJOINCING
TTITLE3=THE ELK
TTITLE4=GLORIAS'S STEP
TTITLE5=MOON AND MIND
TTITLE6=DUST EVIL
TTITLE7=ELEVATOR
TTITLE8=DUNVEGAN
EXTD=YEAR: 1979
EXTT0=
EXTT1=
EXTT2=
EXTT3=
EXTT4=
EXTT5=
EXTT6=
EXTT7=
EXTT8=
PLAYORDER=
